<svg width="287" height="155" viewBox="0 0 287 155" fill="none" xmlns="http://www.w3.org/2000/svg">
<path fill-rule="evenodd" clip-rule="evenodd" d="M186.268 155C194.964 143.143 203.361 130.302 211.254 116.631C234.911 75.655 249.85 34.4727 255.237 0L272 0C280.284 0 287 6.71573 287 15V140C287 148.284 280.284 155 272 155H186.268ZM31.311 155H15C6.71573 155 0 148.284 0 140V15C0 6.71573 6.71573 0 15 0L100.156 0C91.5166 11.7975 83.1726 24.5664 75.3276 38.1544C51.6209 79.2157 36.67 120.484 31.311 155Z" fill="#FFCC11"/>
</svg>
